<svg width="16" height="16" viewBox="0 0 16 16" fill="none" xmlns="http://www.w3.org/2000/svg">
<path d="M1.33337 3H14.6667M11.3334 3L11.1079 2.32339C10.8893 1.66771 10.78 1.33987 10.5773 1.09748C10.3983 0.883442 10.1685 0.717767 9.90879 0.61565C9.61471 0.5 9.26921 0.5 8.57804 0.5H7.42204C6.73087 0.5 6.38537 0.5 6.0913 0.61565C5.83164 0.717767 5.60177 0.883442 5.42278 1.09748C5.22008 1.33987 5.11081 1.66771 4.89224 2.32339L4.66671 3M13 3V11.5C13 12.9002 13 13.6002 12.7275 14.135C12.4879 14.6054 12.1055 14.9878 11.635 15.2275C11.1002 15.5 10.4002 15.5 9.00004 15.5H7.00004C5.59991 15.5 4.89984 15.5 4.36507 15.2275C3.89466 14.9878 3.51221 14.6054 3.27252 14.135C3.00004 13.6002 3.00004 12.9002 3.00004 11.5V3M9.66671 6.33333V12.1667M6.33337 6.33333V12.1667" stroke="#FF7073" stroke-linecap="round" stroke-linejoin="round"/>
</svg>
