<svg width="25" height="24" viewBox="0 0 25 24" fill="none" xmlns="http://www.w3.org/2000/svg">
<g clip-path="url(#clip0_762_1558)">
<path d="M22.0947 7.71243H2.90525C1.57902 7.71243 0.5 8.7914 0.5 10.1176V13.8824C0.5 15.2086 1.57902 16.2876 2.90525 16.2876H22.0948C23.421 16.2876 24.5 15.2086 24.5 13.8824V10.1176C24.5 8.7914 23.421 7.71243 22.0947 7.71243ZM22.9314 13.8824C22.9314 14.3437 22.556 14.7189 22.0947 14.7189H2.90525C2.44395 14.7189 2.06867 14.3436 2.06867 13.8824V10.1176C2.06867 9.65634 2.444 9.28106 2.90525 9.28106H22.0948C22.5561 9.28106 22.9314 9.65639 22.9314 10.1176L22.9314 13.8824Z" fill="black"/>
<path d="M5.90959 13.3055L5.02525 11.9407L5.87383 10.5809C5.90964 10.5247 5.92497 10.4736 5.92497 10.4225C5.92497 10.2078 5.63364 10.0442 5.40869 10.0442C5.29628 10.0442 5.21955 10.0851 5.16841 10.1772L4.48853 11.3631L3.8087 10.1772C3.75756 10.0851 3.68092 10.0442 3.56842 10.0442C3.34347 10.0442 3.05214 10.2078 3.05214 10.4225C3.05214 10.4736 3.06747 10.5247 3.10328 10.5809L3.95186 11.9407L3.06752 13.3055C3.03681 13.3567 3.02148 13.4026 3.02148 13.4487C3.02148 13.6685 3.33334 13.8423 3.55309 13.8423C3.63489 13.8423 3.70652 13.8167 3.74223 13.7605L4.48853 12.4928L5.23483 13.7605C5.26553 13.8167 5.34222 13.8423 5.42397 13.8423C5.64377 13.8423 5.95563 13.6685 5.95563 13.4487C5.95563 13.4027 5.94025 13.3566 5.90959 13.3055Z" fill="black"/>
<path d="M8.44492 10.075C8.31719 10.075 8.26605 10.1261 8.21491 10.2232L7.50438 11.5369L6.78874 10.2232C6.73253 10.1261 6.6865 10.075 6.55872 10.075C6.33892 10.075 6.01685 10.213 6.01685 10.4021C6.01685 10.4174 6.01685 10.4379 6.02711 10.4583L7.08522 12.2117C7.09549 12.227 7.10571 12.2525 7.10571 12.2832V13.5662C7.10571 13.7298 7.30506 13.8116 7.50438 13.8116C7.70374 13.8116 7.90314 13.7298 7.90314 13.5662V12.2832C7.90314 12.2525 7.91336 12.227 7.92358 12.2117L8.97667 10.4583C8.98689 10.4379 8.98689 10.4174 8.98689 10.4021C8.98685 10.213 8.66477 10.075 8.44492 10.075Z" fill="black"/>
<path d="M11.4659 13.1165H10.0755L11.517 10.5657C11.5732 10.4635 11.6039 10.3664 11.6039 10.2846C11.6039 10.1619 11.5273 10.075 11.3739 10.075H9.40077C9.23207 10.075 9.16049 10.2539 9.16049 10.4225C9.16049 10.6066 9.2474 10.7702 9.40077 10.7702H10.5868L9.14526 13.3209C9.08905 13.4181 9.05835 13.5203 9.05835 13.6021C9.05835 13.7248 9.12482 13.8117 9.28837 13.8117H11.466C11.6194 13.8117 11.7063 13.6277 11.7063 13.4641C11.7061 13.3005 11.6192 13.1165 11.4659 13.1165Z" fill="black"/>
<path d="M15.0991 10.075C14.3937 10.075 13.8467 10.4021 13.8467 11.2813V12.6359C13.8467 13.5152 14.3937 13.8423 15.0991 13.8423C15.8045 13.8423 16.3566 13.5152 16.3566 12.6359V11.2813C16.3566 10.402 15.8045 10.075 15.0991 10.075ZM15.5592 12.6359C15.5592 12.9886 15.3854 13.1471 15.0991 13.1471C14.8128 13.1471 14.6441 12.9886 14.6441 12.6359V11.2813C14.6441 10.9286 14.8129 10.7702 15.0991 10.7702C15.3853 10.7702 15.5592 10.9286 15.5592 11.2813V12.6359Z" fill="black"/>
<path d="M18.0075 10.075C17.3021 10.075 16.7551 10.4021 16.7551 11.2813V12.6359C16.7551 13.5152 17.3021 13.8423 18.0075 13.8423C18.713 13.8423 19.265 13.5152 19.265 12.6359V11.2813C19.265 10.402 18.713 10.075 18.0075 10.075ZM18.4676 12.6359C18.4676 12.9886 18.2938 13.1471 18.0075 13.1471C17.7213 13.1471 17.5526 12.9886 17.5526 12.6359V11.2813C17.5526 10.9286 17.7213 10.7702 18.0075 10.7702C18.2938 10.7702 18.4676 10.9286 18.4676 11.2813V12.6359Z" fill="black"/>
<path d="M20.916 10.075C20.2106 10.075 19.6636 10.4021 19.6636 11.2813V12.6359C19.6636 13.5152 20.2106 13.8423 20.916 13.8423C21.6214 13.8423 22.1735 13.5152 22.1735 12.6359V11.2813C22.1735 10.402 21.6214 10.075 20.916 10.075ZM21.3761 12.6359C21.3761 12.9886 21.2022 13.1471 20.916 13.1471C20.6297 13.1471 20.461 12.9886 20.461 12.6359V11.2813C20.461 10.9286 20.6298 10.7702 20.916 10.7702C21.2022 10.7702 21.3761 10.9286 21.3761 11.2813V12.6359Z" fill="black"/>
</g>
<defs>
<clipPath id="clip0_762_1558">
<rect width="24" height="24" fill="white" transform="translate(0.5)"/>
</clipPath>
</defs>
</svg>
