<svg width="25" height="24" viewBox="0 0 25 24" fill="none" xmlns="http://www.w3.org/2000/svg">
<path d="M3.5 8L6.22187 10.2682C6.40158 10.418 6.62811 10.5 6.86205 10.5H18.1379C18.3719 10.5 18.5984 10.418 18.7781 10.2682L21.5 8M7 14H7.01M18 14H18.01M8.66065 4.5H16.3394C17.0571 4.5 17.7198 4.88457 18.0758 5.50772L20.973 10.5777C21.3183 11.1821 21.5 11.8661 21.5 12.5623V18.5C21.5 19.0523 21.0523 19.5 20.5 19.5H19.5C18.9477 19.5 18.5 19.0523 18.5 18.5V17.5H6.5V18.5C6.5 19.0523 6.05228 19.5 5.5 19.5H4.5C3.94772 19.5 3.5 19.0523 3.5 18.5V12.5623C3.5 11.8661 3.68166 11.1821 4.02703 10.5777L6.92416 5.50772C7.28024 4.88457 7.94293 4.5 8.66065 4.5ZM7.5 14C7.5 14.2761 7.27614 14.5 7 14.5C6.72386 14.5 6.5 14.2761 6.5 14C6.5 13.7239 6.72386 13.5 7 13.5C7.27614 13.5 7.5 13.7239 7.5 14ZM18.5 14C18.5 14.2761 18.2761 14.5 18 14.5C17.7239 14.5 17.5 14.2761 17.5 14C17.5 13.7239 17.7239 13.5 18 13.5C18.2761 13.5 18.5 13.7239 18.5 14Z" stroke="black" stroke-width="2" stroke-linecap="round" stroke-linejoin="round"/>
</svg>
