<svg width="21" height="20" viewBox="0 0 21 20" fill="none" xmlns="http://www.w3.org/2000/svg">
<g clip-path="url(#clip0_1299_10063)">
<path d="M10.4998 0C4.98565 0 0.5 4.486 0.5 10C0.5 15.514 4.98565 20 10.4998 20C16.014 20 20.5 15.514 20.5 10C20.5 4.486 16.014 0 10.4998 0ZM10.4998 18.6885C5.709 18.6885 1.8115 14.7908 1.8115 10C1.8115 5.20915 5.70895 1.31155 10.4998 1.31155C15.2907 1.31155 19.1884 5.2092 19.1884 10C19.1884 14.7908 15.2906 18.6885 10.4998 18.6885Z" fill="#1E72C0"/>
<path d="M14.1202 6.72634L8.96365 11.8826L6.8792 9.79864C6.62305 9.54279 6.2081 9.54264 5.95195 9.79879C5.6957 10.055 5.6957 10.47 5.95195 10.7262L8.5001 13.2739C8.62815 13.4018 8.7959 13.4658 8.96365 13.4658C9.1314 13.4658 9.2996 13.4018 9.4276 13.2737C9.428 13.2732 9.4283 13.2726 9.42895 13.272L15.0474 7.65359C15.3037 7.39759 15.3037 6.98229 15.0474 6.72629C14.7913 6.47014 14.3761 6.47014 14.1202 6.72634Z" fill="#1E72C0"/>
</g>
<defs>
<clipPath id="clip0_1299_10063">
<rect width="20" height="20" fill="white" transform="translate(0.5)"/>
</clipPath>
</defs>
</svg>
