<svg width="24" height="24" viewBox="0 0 24 24" fill="none" xmlns="http://www.w3.org/2000/svg">
<g clip-path="url(#clip0_1055_3071)">
<path d="M14.7907 2.56744V4.24187C16.1756 4.24187 17.3023 5.3686 17.3023 6.75348H18.9767C18.9767 4.4453 17.0989 2.56744 14.7907 2.56744Z" fill="black"/>
<path d="M1.67442 16.2419H0C0 18.55 1.87786 20.4279 4.18603 20.4279V18.7535C2.80116 18.7535 1.67442 17.6268 1.67442 16.2419Z" fill="black"/>
<path d="M20.7829 13.0606C20.6349 9.98851 18.0891 7.53493 14.9809 7.53493C14.4326 7.53493 13.9007 7.61316 13.3954 7.75758V5.76751C13.3954 4.6591 12.7037 3.6534 11.4478 2.93574C10.3394 2.30237 8.88374 1.95352 7.34892 1.95352C5.81409 1.95352 4.35838 2.30237 3.24998 2.93569C1.99406 3.65335 1.30237 4.65905 1.30237 5.76746V13.2093C1.30237 14.3177 1.99406 15.3234 3.24998 16.0411C3.80263 16.3569 4.44177 16.6018 5.13388 16.7682C5.12634 16.8788 5.12127 16.99 5.12127 17.1024C5.12127 19.8286 7.33917 22.0465 10.0653 22.0465H19.4002C21.9365 22.0465 24 19.983 24 17.4465C24 15.4281 22.66 13.6569 20.7829 13.0606ZM4.08065 4.38947C4.92763 3.90544 6.11882 3.6279 7.34882 3.6279C8.57877 3.6279 9.76996 3.90544 10.6169 4.38947C11.3185 4.79035 11.7209 5.29262 11.7209 5.76741C11.7209 6.24221 11.3185 6.74447 10.617 7.14535C9.76996 7.62933 8.57877 7.90693 7.34882 7.90693C6.11887 7.90693 4.92763 7.62938 4.08065 7.14535C3.37907 6.74443 2.9767 6.24221 2.9767 5.76741C2.9767 5.29262 3.37907 4.79035 4.08065 4.38947ZM2.9767 8.4324C3.06468 8.48949 3.15548 8.54527 3.24988 8.59922C4.35829 9.2326 5.81399 9.5814 7.34882 9.5814C8.88365 9.5814 10.3394 9.23255 11.4477 8.59922C11.5421 8.54527 11.6329 8.48949 11.7209 8.4324V8.54297C10.7352 9.21465 9.96309 10.1815 9.53784 11.3191C8.87334 11.5191 8.11865 11.6279 7.34882 11.6279C6.11887 11.6279 4.92763 11.3504 4.08065 10.8663C3.37907 10.4654 2.9767 9.96315 2.9767 9.48835V8.4324ZM5.53101 15.1396C4.98937 15.01 4.49395 14.8235 4.08074 14.5873C3.37912 14.1864 2.97674 13.6841 2.97674 13.2093V12.1534C3.06473 12.2105 3.15552 12.2663 3.24993 12.3202C4.25577 12.8949 5.5477 13.2343 6.92498 13.2924C6.32629 13.7873 5.84535 14.4198 5.53101 15.1396ZM19.4001 20.3721H10.0653C8.26237 20.3721 6.79565 18.9054 6.79565 17.1025C6.79565 15.3187 8.24676 13.8522 10.0304 13.8334L10.8036 13.8253L10.8569 13.0539C11.0058 10.8981 12.8173 9.20935 14.981 9.20935C17.2607 9.20935 19.1154 11.064 19.1154 13.3437C19.1154 13.4487 19.1114 13.5551 19.1034 13.66L19.0447 14.4395L19.8183 14.5515C21.2477 14.7585 22.3256 16.0032 22.3256 17.4467C22.3256 19.0598 21.0132 20.3721 19.4001 20.3721Z" fill="black"/>
</g>
<defs>
<clipPath id="clip0_1055_3071">
<rect width="24" height="24" fill="white"/>
</clipPath>
</defs>
</svg>
