<svg width="25" height="24" viewBox="0 0 25 24" fill="none" xmlns="http://www.w3.org/2000/svg">
<g clip-path="url(#clip0_762_1586)">
<path d="M13.9133 22.6667H4.43333C4.18232 22.6747 3.93225 22.6322 3.698 22.5417C3.46375 22.4511 3.25009 22.3144 3.06973 22.1397C2.88937 21.9649 2.74599 21.7556 2.64811 21.5244C2.55024 21.2931 2.49987 21.0445 2.5 20.7933V3.24C2.51911 2.72832 2.74041 2.24512 3.11536 1.89641C3.49031 1.54771 3.98828 1.36199 4.5 1.38H13.98C14.2255 1.3745 14.4695 1.41891 14.6972 1.51052C14.925 1.60213 15.1318 1.73905 15.3051 1.91296C15.4784 2.08688 15.6146 2.29418 15.7054 2.52229C15.7962 2.7504 15.8397 2.99457 15.8333 3.24V20.7933C15.8325 21.0431 15.7819 21.2901 15.6846 21.5201C15.5872 21.75 15.445 21.9583 15.2662 22.1327C15.0875 22.3071 14.8758 22.4441 14.6435 22.5358C14.4112 22.6275 14.163 22.672 13.9133 22.6667ZM4.43333 2.66667C4.35606 2.664 4.27903 2.6768 4.20678 2.70434C4.13452 2.73187 4.0685 2.77357 4.0126 2.82699C3.9567 2.88041 3.91204 2.94446 3.88126 3.01539C3.85047 3.08632 3.83418 3.16268 3.83333 3.24V20.7933C3.83333 20.9472 3.89444 21.0947 4.00321 21.2035C4.11198 21.3122 4.25951 21.3733 4.41333 21.3733H13.9133C14.0729 21.3755 14.2273 21.3167 14.345 21.2089C14.4627 21.1011 14.5348 20.9525 14.5467 20.7933V3.24C14.5332 3.08205 14.4604 2.93508 14.3428 2.82869C14.2253 2.7223 14.0718 2.66441 13.9133 2.66667H4.43333Z" fill="black"/>
<path d="M20.1866 22.6667C19.8785 22.6693 19.5729 22.6109 19.2875 22.4948C19.0021 22.3787 18.7425 22.2073 18.5237 21.9904C18.3049 21.7734 18.1312 21.5153 18.0127 21.2309C17.8942 20.9465 17.8332 20.6414 17.8332 20.3333V15.3333C17.8332 14.9797 17.6927 14.6406 17.4427 14.3905C17.1926 14.1405 16.8535 14 16.4999 14H15.5465C15.3697 14 15.2002 13.9298 15.0751 13.8047C14.9501 13.6797 14.8799 13.5101 14.8799 13.3333C14.8799 13.1565 14.9501 12.987 15.0751 12.8619C15.2002 12.7369 15.3697 12.6667 15.5465 12.6667H16.4999C17.2071 12.6667 17.8854 12.9476 18.3855 13.4477C18.8856 13.9478 19.1665 14.6261 19.1665 15.3333V20.3333C19.1665 20.5985 19.2719 20.8529 19.4594 21.0404C19.647 21.228 19.9013 21.3333 20.1665 21.3333C20.4318 21.3333 20.6861 21.228 20.8737 21.0404C21.0612 20.8529 21.1665 20.5985 21.1665 20.3333V11.5333L19.0799 6.86667C18.9552 6.60661 18.7594 6.38719 18.5152 6.23381C18.271 6.08043 17.9883 5.99937 17.6999 6H17.2132C17.0364 6 16.8668 5.92976 16.7418 5.80474C16.6168 5.67972 16.5465 5.51015 16.5465 5.33333C16.5465 5.15652 16.6168 4.98695 16.7418 4.86193C16.8668 4.73691 17.0364 4.66667 17.2132 4.66667H17.6999C18.2542 4.66638 18.7967 4.82682 19.2617 5.12854C19.7267 5.43026 20.0943 5.86033 20.3199 6.36667L22.4599 11.14C22.499 11.2258 22.5194 11.319 22.5199 11.4133V20.3333C22.5199 20.9522 22.2741 21.5457 21.8365 21.9832C21.3989 22.4208 20.8054 22.6667 20.1866 22.6667Z" fill="black"/>
<path d="M12.5001 6H5.83341C5.6566 6 5.48703 5.92976 5.36201 5.80474C5.23699 5.67971 5.16675 5.51015 5.16675 5.33333C5.16675 5.15652 5.23699 4.98695 5.36201 4.86193C5.48703 4.73691 5.6566 4.66667 5.83341 4.66667H12.5001C12.6769 4.66667 12.8465 4.73691 12.9715 4.86193C13.0965 4.98695 13.1667 5.15652 13.1667 5.33333C13.1667 5.51015 13.0965 5.67971 12.9715 5.80474C12.8465 5.92976 12.6769 6 12.5001 6Z" fill="black"/>
<path d="M12.5001 8.66667H5.83341C5.6566 8.66667 5.48703 8.59643 5.36201 8.47141C5.23699 8.34638 5.16675 8.17681 5.16675 8C5.16675 7.82319 5.23699 7.65362 5.36201 7.5286C5.48703 7.40357 5.6566 7.33334 5.83341 7.33334H12.5001C12.6769 7.33334 12.8465 7.40357 12.9715 7.5286C13.0965 7.65362 13.1667 7.82319 13.1667 8C13.1667 8.17681 13.0965 8.34638 12.9715 8.47141C12.8465 8.59643 12.6769 8.66667 12.5001 8.66667Z" fill="black"/>
<path d="M17.1667 8.05333C16.9899 8.05333 16.8203 7.9831 16.6953 7.85807C16.5702 7.73305 16.5 7.56348 16.5 7.38667V3.38667C16.5 3.20986 16.5702 3.04029 16.6953 2.91526C16.8203 2.79024 16.9899 2.72 17.1667 2.72C17.3435 2.72 17.513 2.79024 17.6381 2.91526C17.7631 3.04029 17.8333 3.20986 17.8333 3.38667V7.38667C17.8333 7.56348 17.7631 7.73305 17.6381 7.85807C17.513 7.9831 17.3435 8.05333 17.1667 8.05333Z" fill="black"/>
</g>
<defs>
<clipPath id="clip0_762_1586">
<rect width="24" height="24" fill="white" transform="translate(0.5)"/>
</clipPath>
</defs>
</svg>
