<svg width="24" height="24" viewBox="0 0 24 24" fill="none" xmlns="http://www.w3.org/2000/svg">
<path fill-rule="evenodd" clip-rule="evenodd" d="M12 2C17.5137 2 22 6.48626 22 12C22 17.5137 17.5137 22 12 22C6.48626 22 2 17.5137 2 12C2 6.48626 6.48626 2 12 2ZM12 4C7.57311 4 4 7.57311 4 12C4 16.4269 7.57311 20 12 20C16.4269 20 20 16.4269 20 12C20 7.57311 16.4269 4 12 4ZM12.0428 7.41163C12.7993 8.39519 13.0545 9.60518 12.8121 10.4886C12.7818 10.6339 13.8479 11.7674 16.0104 13.8891C16.7175 14.5962 16.7175 15.3033 16.0104 16.0104C15.3449 16.6759 14.6794 16.7151 14.0139 16.1279L10.5044 12.7962C9.62093 13.0386 8.41098 12.7835 7.42746 12.027C6.7061 11.0785 6.45728 9.83869 6.65823 8.95009L8.19669 10.4886L9.73515 9.71932L10.5044 8.18086L8.96592 6.6424C9.85449 6.44147 11.0943 6.69026 12.0428 7.41163Z" fill="black"/>
</svg>
