<svg width="24" height="24" viewBox="0 0 24 24" fill="none" xmlns="http://www.w3.org/2000/svg">
<g clip-path="url(#clip0_762_1548)">
<path d="M11.9998 0C7.16606 0 3.23364 3.93251 3.23364 8.7664C3.23364 11.6865 5.91959 16.2951 7.07431 18.141C8.02429 19.6596 9.04412 21.1033 9.94578 22.2063C11.4121 24 11.8239 24 11.9999 24C12.1687 24 12.5639 24 14.0252 22.2057C14.9292 21.0957 15.9498 19.6523 16.8992 18.1416C18.0618 16.2912 20.7662 11.6735 20.7662 8.7664C20.7662 3.93251 16.8337 0 11.9998 0ZM11.9999 15.8476C8.17582 15.8476 5.06468 12.7365 5.06468 8.91247C5.06468 5.08843 8.17582 1.97729 11.9999 1.97729C15.8239 1.97729 18.935 5.08843 18.935 8.91247C18.935 12.7365 15.8239 15.8476 11.9999 15.8476Z" fill="black"/>
<path d="M17.0627 6.25129C17.0147 6.25129 16.9653 6.25822 16.9162 6.2718L16.3593 6.42508L15.7812 5.01665C15.6174 4.61761 15.1332 4.29285 14.7018 4.29285H9.29011C8.85873 4.29285 8.3745 4.61751 8.21069 5.01656L7.63323 6.42324L7.0834 6.2718C7.03425 6.25832 6.98491 6.25129 6.93687 6.25129C6.67364 6.25129 6.48267 6.45234 6.48267 6.72933V7.05779C6.48267 7.38107 6.7458 7.6442 7.06908 7.6442H7.13209L7.03878 7.8714C6.88661 8.24226 6.76271 8.86988 6.76271 9.27068V12.0691C6.76271 12.3924 7.02584 12.6555 7.34912 12.6555H8.11515C8.43843 12.6555 8.70157 12.3924 8.70157 12.0691V11.3703H15.2906V12.0691C15.2906 12.3924 15.5538 12.6555 15.8771 12.6555H16.6428C16.9661 12.6555 17.2292 12.3924 17.2292 12.0691V9.27068C17.2292 8.86988 17.1053 8.24226 16.9532 7.8714L16.8598 7.6442H16.9307C17.254 7.6442 17.5171 7.38107 17.5171 7.05779V6.72933C17.5169 6.45234 17.326 6.25129 17.0627 6.25129ZM8.05371 7.32563L8.92839 5.19488C9.02633 4.95613 9.31764 4.76091 9.57569 4.76091H14.4163C14.6743 4.76091 14.9655 4.95623 15.0635 5.19488L15.9382 7.32563C16.0362 7.56438 15.9052 7.7596 15.6473 7.7596H8.34475C8.08679 7.7596 7.95577 7.56438 8.05371 7.32563ZM10.0064 10.0205C10.0064 10.1495 9.90082 10.2551 9.77184 10.2551H8.11025C7.98118 10.2551 7.87567 10.1495 7.87567 10.0205V9.2231C7.87567 9.09412 7.98127 8.98852 8.11025 8.98852H9.77184C9.90082 8.98852 10.0064 9.09412 10.0064 9.2231V10.0205ZM16.1005 10.0205C16.1005 10.1495 15.9949 10.2551 15.8659 10.2551H14.2045C14.0755 10.2551 13.9699 10.1495 13.9699 10.0205V9.2231C13.9699 9.09412 14.0755 8.98852 14.2045 8.98852H15.8659C15.9949 8.98852 16.1005 9.09412 16.1005 9.2231V10.0205Z" fill="black"/>
</g>
<defs>
<clipPath id="clip0_762_1548">
<rect width="24" height="24" fill="white"/>
</clipPath>
</defs>
</svg>
