<svg width="28" height="29" viewBox="0 0 28 29" fill="none" xmlns="http://www.w3.org/2000/svg">
<path fill-rule="evenodd" clip-rule="evenodd" d="M12.8537 22.6667C12.4368 22.6667 12.0811 22.3572 12.0132 21.9352C11.9506 21.5938 11.711 21.3149 11.3887 21.2083C11.126 21.1158 10.8692 21.0067 10.6197 20.8817C10.3228 20.7259 9.9667 20.7493 9.69151 20.9423C9.35849 21.1879 8.901 21.1499 8.61089 20.8525L7.48249 19.6952C7.1788 19.3837 7.13935 18.8926 7.38921 18.5343C7.58191 18.2456 7.60966 17.8733 7.46201 17.5578C7.36472 17.3387 7.2789 17.1144 7.20494 16.8858C7.09899 16.5257 6.80657 16.256 6.44622 16.1858C6.01168 16.1147 5.69088 15.7319 5.68751 15.2805V13.8327C5.6852 13.3125 6.05156 12.8675 6.55201 12.7827C6.93167 12.7086 7.24869 12.4419 7.39376 12.0745C7.43699 11.9711 7.48249 11.8684 7.53026 11.7665C7.7232 11.3855 7.69656 10.9266 7.46087 10.5718C7.16613 10.1517 7.21139 9.57445 7.56779 9.20801L8.39704 8.35751C8.80602 7.93788 9.45105 7.88358 9.92129 8.22918L9.94744 8.24784C10.2986 8.49023 10.7454 8.53413 11.135 8.36451C11.5518 8.21064 11.859 7.84329 11.9437 7.39734L11.9552 7.35768C12.0487 6.76731 12.5459 6.33359 13.1291 6.33334H14.1301C14.7289 6.33306 15.24 6.77734 15.338 7.38334L15.3562 7.46501C15.4366 7.89221 15.7279 8.24577 16.1252 8.39834C16.5081 8.56689 16.9484 8.52287 17.2923 8.28168L17.3491 8.23968C17.8316 7.88307 18.4949 7.93792 18.9155 8.36918L19.6787 9.15318C20.0613 9.5477 20.1094 10.1681 19.7925 10.6197C19.5442 10.9971 19.5126 11.4821 19.7094 11.8902L19.7584 12.0068C19.9178 12.4053 20.2628 12.694 20.6752 12.7745C21.2143 12.8647 21.6107 13.3414 21.6125 13.9015V15.2C21.6124 15.694 21.264 16.1154 20.7889 16.1963C20.3982 16.2732 20.08 16.5634 19.9597 16.9523C19.9066 17.1079 19.8474 17.2635 19.7822 17.419C19.6304 17.7608 19.6642 18.1591 19.871 18.469C20.1439 18.8584 20.1015 19.3934 19.7709 19.7325L18.7119 20.8198C18.4091 21.1304 17.9314 21.1704 17.5835 20.9143C17.293 20.7108 16.9168 20.6884 16.6053 20.856C16.3833 20.9688 16.1554 21.0689 15.9228 21.1558C15.5974 21.271 15.3575 21.5566 15.2949 21.9037C15.2285 22.3404 14.8634 22.6634 14.4326 22.6667H12.8537Z" stroke="black" stroke-linecap="round" stroke-linejoin="round"/>
<path fill-rule="evenodd" clip-rule="evenodd" d="M16.3039 14.5C16.3039 16.0033 15.1158 17.2218 13.6501 17.2218C12.1844 17.2218 10.9963 16.0033 10.9963 14.5C10.9963 12.9968 12.1844 11.7782 13.6501 11.7782C15.1158 11.7782 16.3039 12.9968 16.3039 14.5Z" stroke="black" stroke-linecap="round" stroke-linejoin="round"/>
</svg>
