<svg width="24" height="24" viewBox="0 0 24 24" fill="none" xmlns="http://www.w3.org/2000/svg">
<g clip-path="url(#clip0_837_762)">
<path d="M14.3455 19.4025C15.4647 19.4025 16.3753 18.4919 16.3753 17.3727C16.3753 16.2535 15.4647 15.3429 14.3455 15.3429C13.2262 15.3429 12.3157 16.2535 12.3157 17.3727C12.3157 18.4919 13.2262 19.4025 14.3455 19.4025ZM14.3455 16.3247C14.9233 16.3247 15.3935 16.7949 15.3935 17.3727C15.3935 17.9506 14.9233 18.4207 14.3455 18.4207C13.7676 18.4207 13.2975 17.9506 13.2975 17.3727C13.2975 16.7949 13.7676 16.3247 14.3455 16.3247Z" fill="black"/>
<path d="M24.0001 11.4818C24.0001 11.2107 23.7803 10.9909 23.5091 10.9909H18.5073V9.51338L19.8759 8.47211C20.145 8.26735 20.4791 8.15454 20.8168 8.15454H23.5091C23.7803 8.15454 24.0001 7.93478 24.0001 7.66364C24.0001 7.39249 23.7803 7.17273 23.5091 7.17273H20.8168C20.2656 7.17273 19.7202 7.35676 19.2814 7.6908L14.9065 11.0192L14.8246 11.0337L13.1117 6.95749C12.6321 5.81607 11.7663 4.8666 10.6738 4.284C10.4344 4.15636 10.1372 4.24691 10.0096 4.4862C9.88205 4.72544 9.97254 5.02276 10.2118 5.15034C11.1057 5.62707 11.8141 6.40391 12.2066 7.33784L13.8335 11.2096L9.13052 12.0441C8.4438 12.1655 7.83229 12.5713 7.4526 13.1577L7.15663 13.6156C6.82821 14.1229 6.65454 14.7106 6.65454 15.3153C6.65454 15.7593 6.74672 16.1904 6.92896 16.5977C7.11114 17.0028 7.37198 17.3582 7.70476 17.6542L8.10381 18.0086C8.63181 18.4779 9.31156 18.7364 10.0178 18.7364H11.1919C11.7207 19.9546 12.935 20.8091 14.3454 20.8091C15.7558 20.8091 16.9701 19.9546 17.4989 18.7364H23.5091C23.7803 18.7364 24.0001 18.5167 24.0001 18.2455C24.0001 17.9744 23.7803 17.7546 23.5091 17.7546H17.7602C17.7741 17.6291 17.7819 17.5019 17.7819 17.3728C17.7819 17.2079 17.7695 17.0461 17.747 16.8873H23.5091C23.7803 16.8873 24.0001 16.6676 24.0001 16.3964C24.0001 16.1253 23.7803 15.9055 23.5091 15.9055H17.4521C16.9006 14.7427 15.7156 13.9364 14.3455 13.9364C12.9754 13.9364 11.7904 14.7427 11.2389 15.9055H7.71943C7.67318 15.7439 7.64612 15.578 7.63887 15.4091H9.02596C9.64325 15.4091 10.1455 14.9069 10.1455 14.2896C10.1455 13.6723 9.64325 13.1701 9.02596 13.1701H8.844C8.98625 13.0938 9.14056 13.0394 9.30185 13.0109L15.1524 11.9727H23.5091C23.7803 11.9727 24.0001 11.753 24.0001 11.4818ZM14.3455 14.9182C15.6989 14.9182 16.8001 16.0193 16.8001 17.3727C16.8001 18.7262 15.6989 19.8273 14.3455 19.8273C12.9921 19.8273 11.891 18.7262 11.891 17.3727C11.891 16.0193 12.9921 14.9182 14.3455 14.9182ZM10.9309 17.7545H10.0179C9.55232 17.7545 9.10423 17.5841 8.75596 17.2745L8.35707 16.9203C8.34496 16.9096 8.33361 16.8982 8.32178 16.8873H10.9441C10.9215 17.0459 10.9091 17.2079 10.9091 17.3727C10.9091 17.5018 10.9169 17.6291 10.9309 17.7545ZM9.16369 14.2895C9.16369 14.3655 9.10189 14.4273 9.02596 14.4273H7.82891C7.87211 14.3324 7.92218 14.2403 7.97929 14.1518H9.02596C9.10189 14.1518 9.16369 14.2136 9.16369 14.2895ZM17.5255 10.9909H16.5652L17.5255 10.2603V10.9909Z" fill="black"/>
<path d="M22.0363 12.8455C21.7652 12.8455 21.5454 13.0652 21.5454 13.3364C21.5454 13.6075 21.7652 13.8273 22.0363 13.8273H23.3454C23.6166 13.8273 23.8363 13.6075 23.8363 13.3364C23.8363 13.0652 23.6166 12.8455 23.3454 12.8455H22.0363Z" fill="black"/>
<path d="M7.69087 11.3689C8.00113 11.5485 8.35638 11.6455 8.7274 11.6455C9.87029 11.6455 10.8001 10.7156 10.8001 9.57273C10.8001 8.79371 10.3644 8.09853 9.70584 7.74535C9.82835 7.41404 9.89184 7.06195 9.89184 6.70467C9.89184 5.05047 8.54604 3.70467 6.89184 3.70467C5.23764 3.70467 3.89184 5.05047 3.89184 6.70467C3.89184 6.71018 3.89184 6.71564 3.89189 6.72115C2.5042 7.11191 1.50684 8.39242 1.50684 9.87104C1.50684 11.6756 2.97498 13.1438 4.77956 13.1438C6.02931 13.1437 7.14078 12.4419 7.69087 11.3689ZM4.77962 12.1619C3.5164 12.1619 2.48871 11.1342 2.48871 9.87098C2.48871 8.81826 3.21056 7.90909 4.2076 7.65284C4.29629 7.63004 4.6828 7.58007 4.77962 7.58007C5.46569 7.58007 6.10998 7.88389 6.54727 8.41358C6.64431 8.53118 6.78471 8.592 6.92609 8.592C7.03616 8.592 7.14689 8.55518 7.23836 8.47964C7.44744 8.30706 7.477 7.99762 7.30442 7.78855C6.7006 7.05709 5.81996 6.62853 4.87633 6.60093C4.93049 5.53609 5.8138 4.68649 6.89189 4.68649C8.00467 4.68649 8.91007 5.59184 8.91007 6.70467C8.91007 7.07913 8.8066 7.4448 8.61084 7.7622C8.52613 7.89949 8.51429 8.06962 8.5792 8.21727C8.644 8.36498 8.77731 8.47135 8.93571 8.50189C9.44707 8.60056 9.81831 9.05095 9.81831 9.57273C9.81831 10.1743 9.32893 10.6636 8.7274 10.6636C8.38889 10.6636 8.07509 10.51 7.8664 10.242C7.75098 10.0937 7.56084 10.0245 7.37718 10.0634C7.19336 10.1024 7.04795 10.2429 7.00267 10.4253C6.74865 11.4478 5.83453 12.1619 4.77962 12.1619Z" fill="black"/>
<path d="M3.21818 4.8C3.21818 3.91271 2.49638 3.19091 1.60909 3.19091C0.7218 3.19091 0 3.91271 0 4.8C0 5.68729 0.7218 6.40909 1.60909 6.40909C2.49638 6.40909 3.21818 5.68729 3.21818 4.8ZM0.981818 4.8C0.981818 4.45413 1.26322 4.17273 1.60909 4.17273C1.95496 4.17273 2.23636 4.45413 2.23636 4.8C2.23636 5.14587 1.95496 5.42727 1.60909 5.42727C1.26322 5.42727 0.981818 5.14587 0.981818 4.8Z" fill="black"/>
</g>
<defs>
<clipPath id="clip0_837_762">
<rect width="24" height="24" fill="white"/>
</clipPath>
</defs>
</svg>
