<svg width="21" height="20" viewBox="0 0 21 20" fill="none" xmlns="http://www.w3.org/2000/svg">
<g clip-path="url(#clip0_762_1228)">
<path d="M18 1.25H8C7.30964 1.25 6.75 1.80964 6.75 2.5V17.5C6.75 18.1904 7.30964 18.75 8 18.75H18C18.6904 18.75 19.25 18.1904 19.25 17.5V2.5C19.25 1.80964 18.6904 1.25 18 1.25Z" fill="#1066B5"/>
<path d="M18 1.25H8C7.30964 1.25 6.75 1.80964 6.75 2.5V17.5C6.75 18.1904 7.30964 18.75 8 18.75H18C18.6904 18.75 19.25 18.1904 19.25 17.5V2.5C19.25 1.80964 18.6904 1.25 18 1.25Z" fill="url(#paint0_linear_762_1228)"/>
<path d="M13 3.125H6.75V9.375H13V3.125Z" fill="#32A9E7"/>
<path d="M13 9.375H6.75V15.625H13V9.375Z" fill="#167EB4"/>
<path d="M19.25 9.375H13V15.625H19.25V9.375Z" fill="#32A9E7"/>
<path d="M19.25 3.125H13V9.375H19.25V3.125Z" fill="#58D9FD"/>
<mask id="mask0_762_1228" style="mask-type:alpha" maskUnits="userSpaceOnUse" x="5" y="8" width="16" height="11">
<path d="M5.5 8.75H19.25C19.9404 8.75 20.5 9.30963 20.5 10V17.5C20.5 18.1904 19.9404 18.75 19.25 18.75H6.75C6.05964 18.75 5.5 18.1904 5.5 17.5V8.75Z" fill="url(#paint1_linear_762_1228)"/>
</mask>
<g mask="url(#mask0_762_1228)">
<path d="M20.5 8.75V11.25H19.25V8.75H20.5Z" fill="#135298"/>
<path d="M20.5 18.75V10L4.875 18.75H20.5Z" fill="url(#paint2_linear_762_1228)"/>
<path d="M5.5 18.75V10L21.125 18.75H5.5Z" fill="url(#paint3_linear_762_1228)"/>
</g>
<path d="M5.5 7.5C5.5 6.46444 6.33947 5.625 7.375 5.625H11.125C12.1606 5.625 13 6.46444 13 7.5V15C13 16.0356 12.1606 16.875 11.125 16.875H5.5V7.5Z" fill="black" fill-opacity="0.3"/>
<path d="M10.5 4.375H1.75C1.05964 4.375 0.5 4.93464 0.5 5.625V14.375C0.5 15.0654 1.05964 15.625 1.75 15.625H10.5C11.1904 15.625 11.75 15.0654 11.75 14.375V5.625C11.75 4.93464 11.1904 4.375 10.5 4.375Z" fill="url(#paint4_linear_762_1228)"/>
<path d="M9.25 10.0433V9.93937C9.25 8.13887 7.9545 6.875 6.13489 6.875C4.30538 6.875 3 8.1475 3 9.95669V10.0606C3 11.8611 4.29549 13.125 6.125 13.125C7.94462 13.125 9.25 11.8525 9.25 10.0433ZM7.7765 10.0606C7.7765 11.2552 7.10406 11.9737 6.13489 11.9737C5.16574 11.9737 4.48339 11.2379 4.48339 10.0433V9.93937C4.48339 8.74481 5.15586 8.02631 6.125 8.02631C7.08425 8.02631 7.7765 8.76213 7.7765 9.95669V10.0606Z" fill="white"/>
</g>
<defs>
<linearGradient id="paint0_linear_762_1228" x1="6.75" y1="10" x2="19.25" y2="10" gradientUnits="userSpaceOnUse">
<stop stop-color="#064484"/>
<stop offset="1" stop-color="#0F65B5"/>
</linearGradient>
<linearGradient id="paint1_linear_762_1228" x1="5.5" y1="16.7307" x2="20.5" y2="16.7307" gradientUnits="userSpaceOnUse">
<stop stop-color="#1B366F"/>
<stop offset="1" stop-color="#2657B0"/>
</linearGradient>
<linearGradient id="paint2_linear_762_1228" x1="20.5" y1="14.375" x2="5.5" y2="14.375" gradientUnits="userSpaceOnUse">
<stop stop-color="#44DCFD"/>
<stop offset="0.453125" stop-color="#259ED0"/>
</linearGradient>
<linearGradient id="paint3_linear_762_1228" x1="5.5" y1="14.375" x2="20.5" y2="14.375" gradientUnits="userSpaceOnUse">
<stop stop-color="#259ED0"/>
<stop offset="1" stop-color="#44DCFD"/>
</linearGradient>
<linearGradient id="paint4_linear_762_1228" x1="0.5" y1="10" x2="11.75" y2="10" gradientUnits="userSpaceOnUse">
<stop stop-color="#064484"/>
<stop offset="1" stop-color="#0F65B5"/>
</linearGradient>
<clipPath id="clip0_762_1228">
<rect width="20" height="20" fill="white" transform="translate(0.5)"/>
</clipPath>
</defs>
</svg>
