<svg width="24" height="24" viewBox="0 0 24 24" fill="none" xmlns="http://www.w3.org/2000/svg">
<g clip-path="url(#clip0_762_1599)">
<path d="M11.9992 0.846748C5.39016 0.846748 0.0141602 6.2235 0.0141602 12.8325C0.0141602 16.9845 2.11641 20.7825 5.63691 22.9905C5.98716 23.2125 6.44991 23.1045 6.67041 22.7535C6.89091 22.4025 6.78441 21.9397 6.43341 21.72C5.16516 20.9242 4.11216 19.8908 3.30591 18.6998L4.09191 18.246C4.45041 18.039 4.57416 17.5807 4.36641 17.2215C4.15866 16.8615 3.69966 16.74 3.34191 16.947L2.55441 17.4015C1.98216 16.2172 1.63341 14.922 1.53966 13.5712H2.37441C2.78841 13.5712 3.12441 13.2352 3.12441 12.8212C3.12441 12.4072 2.78916 12.0712 2.37441 12.0712H1.54341C1.64241 10.6957 2.00691 9.39225 2.58816 8.214L3.34191 8.649C3.45966 8.71725 3.58866 8.7495 3.71616 8.7495C3.97566 8.7495 4.22691 8.61525 4.36641 8.3745C4.57416 8.01525 4.45041 7.557 4.09191 7.35L3.34566 6.9195C4.09791 5.82225 5.05341 4.8735 6.15816 4.13025L6.58041 4.8615C6.71916 5.103 6.97116 5.2365 7.23066 5.2365C7.35816 5.2365 7.48716 5.20425 7.60491 5.136C7.96416 4.92825 8.08716 4.47075 7.87941 4.1115L7.45866 3.38325C8.61516 2.82525 9.88866 2.47725 11.2312 2.37975V3.31425C11.2312 3.729 11.5664 4.06425 11.9812 4.06425C12.3959 4.06425 12.7312 3.729 12.7312 3.31425V2.37675C14.1044 2.472 15.4064 2.83125 16.5839 3.4065L16.1767 4.11075C15.9697 4.47 16.0919 4.92825 16.4512 5.13525C16.5689 5.2035 16.6979 5.23575 16.8254 5.23575C17.0849 5.23575 17.3362 5.10225 17.4757 4.86075L17.8807 4.15875C18.9749 4.9035 19.9214 5.85 20.6669 6.9435L19.9649 7.34925C19.6057 7.557 19.4834 8.0145 19.6904 8.37375C19.8299 8.61525 20.0812 8.74875 20.3407 8.74875C20.4682 8.74875 20.5972 8.7165 20.7149 8.64825L21.4214 8.241C21.9974 9.41925 22.3574 10.7212 22.4542 12.0953H21.6307C21.2167 12.0953 20.8807 12.4313 20.8807 12.8453C20.8807 13.2592 21.2167 13.5953 21.6307 13.5953H22.4542C22.3589 14.928 22.0184 16.2067 21.4582 17.376L20.7157 16.947C20.3579 16.74 19.8974 16.8638 19.6912 17.2215C19.4842 17.5807 19.6064 18.039 19.9657 18.246L20.7104 18.6757C19.8877 19.9005 18.8017 20.9587 17.4914 21.765C17.1382 21.9825 17.0294 22.4452 17.2462 22.797C17.3879 23.0265 17.6339 23.154 17.8852 23.154C18.0187 23.154 18.1552 23.118 18.2774 23.043C21.8504 20.8425 23.9834 17.025 23.9834 12.8325C23.9834 6.22425 18.6067 0.847498 11.9984 0.847498L11.9992 0.846748ZM17.5334 10.494C17.8919 10.2862 18.0149 9.82875 17.8079 9.4695C17.6009 9.11025 17.1419 8.988 16.7834 9.195L12.7094 11.547C12.4919 11.424 12.2444 11.3482 11.9767 11.3482C11.1502 11.3482 10.4804 12.018 10.4804 12.8437C10.4804 13.6702 11.1502 14.34 11.9767 14.34C12.8032 14.34 13.4729 13.6702 13.4729 12.8437C13.4729 12.8422 13.4729 12.84 13.4729 12.8385L17.5334 10.494Z" fill="black"/>
</g>
<defs>
<clipPath id="clip0_762_1599">
<rect width="24" height="24" fill="white"/>
</clipPath>
</defs>
</svg>
